<mxfile host="app.diagrams.net" modified="2022-01-06T03:04:09.509Z" agent="5.0 (Windows NT 10.0; Win64; x64) AppleWebKit/537.36 (KHTML, like Gecko) Chrome/95.0.4638.54 Safari/537.36" etag="9RYEmCX-3B-GrfXvuP8t" version="16.2.1" type="github">
  <diagram id="90IeIAfmedzmcFu7LzjR" name="第 1 页">
    <mxGraphModel dx="2424" dy="974" grid="1" gridSize="10" guides="1" tooltips="1" connect="1" arrows="1" fold="1" page="1" pageScale="1" pageWidth="827" pageHeight="1169" math="0" shadow="0">
      <root>
        <mxCell id="0" />
        <mxCell id="1" parent="0" />
        <mxCell id="mcgONXmjv9BkWE1unD7E-1" value="&lt;h1&gt;频道呼入的状态迁移&lt;/h1&gt;&lt;p style=&quot;font-size: 20px&quot;&gt;&lt;font style=&quot;font-size: 20px&quot;&gt;&lt;b&gt;&lt;i&gt;legend:&lt;/i&gt;&lt;/b&gt;&lt;/font&gt;&lt;/p&gt;&lt;p style=&quot;font-size: 20px&quot;&gt;&lt;font color=&quot;#ff00ff&quot; style=&quot;font-size: 20px&quot;&gt;&lt;b&gt;xxxx Function call by APP&lt;/b&gt;&lt;/font&gt;&lt;/p&gt;&lt;p style=&quot;font-size: 20px&quot;&gt;&lt;b&gt;&lt;font style=&quot;font-size: 20px&quot;&gt;&lt;font color=&quot;#000099&quot; style=&quot;font-size: 20px&quot;&gt;xxxx Event triggered&amp;nbsp;by Internal&lt;/font&gt;&lt;font color=&quot;#ff00ff&quot; style=&quot;font-size: 20px&quot;&gt;&lt;br&gt;&lt;/font&gt;&lt;/font&gt;&lt;/b&gt;&lt;/p&gt;&lt;p style=&quot;font-size: 20px&quot;&gt;&lt;font color=&quot;#336600&quot; style=&quot;font-size: 20px&quot;&gt;&lt;b&gt;xxxx Msg Rcv From External&lt;/b&gt;&lt;/font&gt;&lt;/p&gt;&lt;p style=&quot;font-size: 20px&quot;&gt;&lt;font color=&quot;#ff8000&quot; style=&quot;font-size: 20px&quot;&gt;&lt;b&gt;xxxx Event triggered&amp;nbsp;by UFO&lt;/b&gt;&lt;/font&gt;&lt;/p&gt;&lt;p&gt;&lt;font color=&quot;#ff8000&quot;&gt;&lt;br&gt;&lt;/font&gt;&lt;/p&gt;&lt;p&gt;&lt;font color=&quot;#ff8000&quot;&gt;&lt;br&gt;&lt;/font&gt;&lt;/p&gt;&lt;p&gt;&lt;br&gt;&lt;/p&gt;" style="text;html=1;strokeColor=none;fillColor=none;spacing=5;spacingTop=-20;whiteSpace=wrap;overflow=hidden;rounded=0;" vertex="1" parent="1">
          <mxGeometry x="319" y="30" width="661" height="320" as="geometry" />
        </mxCell>
        <mxCell id="mcgONXmjv9BkWE1unD7E-2" value="" style="ellipse;whiteSpace=wrap;html=1;fillColor=#dae8fc;strokeColor=#6c8ebf;strokeWidth=5;" vertex="1" parent="1">
          <mxGeometry x="319" y="310" width="50" height="30" as="geometry" />
        </mxCell>
        <mxCell id="mcgONXmjv9BkWE1unD7E-3" value="&lt;font color=&quot;#66b2ff&quot; size=&quot;1&quot;&gt;&lt;b style=&quot;font-size: 20px&quot;&gt;Ofen used channel status&lt;/b&gt;&lt;/font&gt;" style="text;html=1;strokeColor=none;fillColor=none;align=center;verticalAlign=middle;whiteSpace=wrap;rounded=0;fontColor=#FF8000;strokeWidth=5;" vertex="1" parent="1">
          <mxGeometry x="369" y="300" width="321" height="30" as="geometry" />
        </mxCell>
        <mxCell id="mcgONXmjv9BkWE1unD7E-6" value="" style="edgeStyle=orthogonalEdgeStyle;rounded=0;orthogonalLoop=1;jettySize=auto;html=1;fontColor=#66B2FF;" edge="1" parent="1" source="mcgONXmjv9BkWE1unD7E-4" target="mcgONXmjv9BkWE1unD7E-5">
          <mxGeometry relative="1" as="geometry" />
        </mxCell>
        <mxCell id="mcgONXmjv9BkWE1unD7E-11" value="&lt;div style=&quot;font-family: &amp;#34;consolas&amp;#34; , &amp;#34;courier new&amp;#34; , monospace ; line-height: 19px ; font-size: 28px&quot;&gt;&lt;font style=&quot;font-size: 28px&quot;&gt;CHANNEL_PROGRESS&lt;/font&gt;&lt;/div&gt;&lt;div style=&quot;font-family: &amp;#34;consolas&amp;#34; , &amp;#34;courier new&amp;#34; , monospace ; line-height: 19px ; font-size: 28px&quot;&gt;&lt;font style=&quot;font-size: 28px&quot;&gt;&lt;br&gt;&lt;/font&gt;&lt;/div&gt;&lt;div style=&quot;font-family: &amp;#34;consolas&amp;#34; , &amp;#34;courier new&amp;#34; , monospace ; line-height: 19px ; font-size: 28px&quot;&gt;&lt;div style=&quot;font-family: &amp;#34;consolas&amp;#34; , &amp;#34;courier new&amp;#34; , monospace ; line-height: 19px&quot;&gt;&lt;font style=&quot;font-size: 28px&quot;&gt;CHANNEL_PROGRESS_MEDIA&lt;/font&gt;&lt;/div&gt;&lt;div style=&quot;font-family: &amp;#34;consolas&amp;#34; , &amp;#34;courier new&amp;#34; , monospace ; line-height: 19px&quot;&gt;&lt;font style=&quot;font-size: 28px&quot;&gt;&lt;br&gt;&lt;/font&gt;&lt;/div&gt;&lt;div style=&quot;font-family: &amp;#34;consolas&amp;#34; , &amp;#34;courier new&amp;#34; , monospace ; line-height: 19px&quot;&gt;&lt;font style=&quot;font-size: 28px&quot;&gt;&lt;br&gt;&lt;/font&gt;&lt;/div&gt;&lt;div style=&quot;font-family: &amp;#34;consolas&amp;#34; , &amp;#34;courier new&amp;#34; , monospace ; line-height: 19px&quot;&gt;&lt;font style=&quot;font-size: 28px&quot; color=&quot;#ff8000&quot;&gt;OnRingEvent&lt;/font&gt;&lt;/div&gt;&lt;/div&gt;" style="edgeLabel;html=1;align=center;verticalAlign=middle;resizable=0;points=[];fontSize=15;fontColor=#000099;labelBackgroundColor=none;fontStyle=1;" vertex="1" connectable="0" parent="mcgONXmjv9BkWE1unD7E-6">
          <mxGeometry x="0.0602" relative="1" as="geometry">
            <mxPoint x="6" y="-29" as="offset" />
          </mxGeometry>
        </mxCell>
        <mxCell id="mcgONXmjv9BkWE1unD7E-26" value="&lt;div style=&quot;font-family: &amp;#34;consolas&amp;#34; , &amp;#34;courier new&amp;#34; , monospace ; line-height: 19px ; font-size: 28px&quot;&gt;&lt;div style=&quot;color: rgb(212 , 212 , 212) ; background-color: rgb(30 , 30 , 30) ; font-family: &amp;#34;consolas&amp;#34; , &amp;#34;courier new&amp;#34; , monospace ; font-weight: normal ; font-size: 14px ; line-height: 19px&quot;&gt;&lt;br&gt;&lt;/div&gt;&lt;/div&gt;" style="edgeLabel;html=1;align=center;verticalAlign=middle;resizable=0;points=[];fontSize=15;fontColor=#000099;labelBackgroundColor=none;fontStyle=1;" vertex="1" connectable="0" parent="mcgONXmjv9BkWE1unD7E-6">
          <mxGeometry x="0.0602" relative="1" as="geometry">
            <mxPoint x="356" y="79" as="offset" />
          </mxGeometry>
        </mxCell>
        <mxCell id="mcgONXmjv9BkWE1unD7E-4" value="IDLE" style="ellipse;whiteSpace=wrap;html=1;fillColor=#dae8fc;strokeColor=#6c8ebf;" vertex="1" parent="1">
          <mxGeometry x="294" y="400" width="120" height="80" as="geometry" />
        </mxCell>
        <mxCell id="mcgONXmjv9BkWE1unD7E-8" value="" style="edgeStyle=orthogonalEdgeStyle;rounded=0;orthogonalLoop=1;jettySize=auto;html=1;fontColor=#000099;curved=1;" edge="1" parent="1" source="mcgONXmjv9BkWE1unD7E-5" target="mcgONXmjv9BkWE1unD7E-7">
          <mxGeometry relative="1" as="geometry" />
        </mxCell>
        <mxCell id="mcgONXmjv9BkWE1unD7E-15" value="" style="edgeStyle=orthogonalEdgeStyle;rounded=0;orthogonalLoop=1;jettySize=auto;html=1;fontSize=28;fontColor=#FF00FF;curved=1;" edge="1" parent="1" source="mcgONXmjv9BkWE1unD7E-5" target="mcgONXmjv9BkWE1unD7E-14">
          <mxGeometry relative="1" as="geometry" />
        </mxCell>
        <mxCell id="mcgONXmjv9BkWE1unD7E-5" value="RINGING" style="ellipse;whiteSpace=wrap;html=1;fillColor=#dae8fc;strokeColor=#6c8ebf;" vertex="1" parent="1">
          <mxGeometry x="294" y="780" width="120" height="80" as="geometry" />
        </mxCell>
        <mxCell id="mcgONXmjv9BkWE1unD7E-17" style="edgeStyle=orthogonalEdgeStyle;rounded=0;orthogonalLoop=1;jettySize=auto;html=1;fontSize=28;fontColor=#FF00FF;curved=1;" edge="1" parent="1" source="mcgONXmjv9BkWE1unD7E-7" target="mcgONXmjv9BkWE1unD7E-14">
          <mxGeometry relative="1" as="geometry" />
        </mxCell>
        <mxCell id="mcgONXmjv9BkWE1unD7E-20" value="" style="edgeStyle=orthogonalEdgeStyle;rounded=0;orthogonalLoop=1;jettySize=auto;html=1;fontSize=28;fontColor=#FF00FF;" edge="1" parent="1" source="mcgONXmjv9BkWE1unD7E-7" target="mcgONXmjv9BkWE1unD7E-19">
          <mxGeometry relative="1" as="geometry" />
        </mxCell>
        <mxCell id="mcgONXmjv9BkWE1unD7E-7" value="TALKING" style="ellipse;whiteSpace=wrap;html=1;fillColor=#dae8fc;strokeColor=#6c8ebf;" vertex="1" parent="1">
          <mxGeometry x="130" y="1085" width="120" height="80" as="geometry" />
        </mxCell>
        <mxCell id="mcgONXmjv9BkWE1unD7E-12" value="&lt;div style=&quot;font-family: &amp;#34;consolas&amp;#34; , &amp;#34;courier new&amp;#34; , monospace ; line-height: 19px&quot;&gt;&lt;div style=&quot;font-family: &amp;#34;consolas&amp;#34; , &amp;#34;courier new&amp;#34; , monospace ; line-height: 19px&quot;&gt;&lt;font style=&quot;font-size: 28px&quot;&gt;CHANNEL_ANSWER&lt;/font&gt;&lt;/div&gt;&lt;div style=&quot;font-family: &amp;#34;consolas&amp;#34; , &amp;#34;courier new&amp;#34; , monospace ; line-height: 19px&quot;&gt;&lt;font style=&quot;font-size: 28px&quot;&gt;&lt;br&gt;&lt;/font&gt;&lt;/div&gt;&lt;div style=&quot;font-family: &amp;#34;consolas&amp;#34; , &amp;#34;courier new&amp;#34; , monospace ; line-height: 19px&quot;&gt;&lt;font style=&quot;font-size: 28px&quot; color=&quot;#ff8000&quot;&gt;OnAnswerEvent&lt;/font&gt;&lt;/div&gt;&lt;div style=&quot;font-family: &amp;#34;consolas&amp;#34; , &amp;#34;courier new&amp;#34; , monospace ; line-height: 19px&quot;&gt;&lt;font style=&quot;font-size: 28px&quot;&gt;&lt;br&gt;&lt;/font&gt;&lt;/div&gt;&lt;/div&gt;" style="edgeLabel;html=1;align=center;verticalAlign=middle;resizable=0;points=[];fontSize=15;fontColor=#000099;labelBackgroundColor=none;fontStyle=1;" vertex="1" connectable="0" parent="1">
          <mxGeometry x="190" y="1005" as="geometry" />
        </mxCell>
        <mxCell id="mcgONXmjv9BkWE1unD7E-25" style="edgeStyle=orthogonalEdgeStyle;curved=1;rounded=0;orthogonalLoop=1;jettySize=auto;html=1;entryX=1;entryY=0.5;entryDx=0;entryDy=0;fontSize=28;fontColor=#FF00FF;" edge="1" parent="1" source="mcgONXmjv9BkWE1unD7E-14" target="mcgONXmjv9BkWE1unD7E-4">
          <mxGeometry relative="1" as="geometry">
            <Array as="points">
              <mxPoint x="740" y="1125" />
              <mxPoint x="740" y="510" />
              <mxPoint x="414" y="510" />
            </Array>
          </mxGeometry>
        </mxCell>
        <mxCell id="mcgONXmjv9BkWE1unD7E-27" value="&lt;div style=&quot;font-family: &amp;#34;consolas&amp;#34; , &amp;#34;courier new&amp;#34; , monospace ; line-height: 19px&quot;&gt;&lt;font style=&quot;font-size: 28px&quot;&gt;CHANNEL_HANGUP_COMPLETE&lt;/font&gt;&lt;/div&gt;" style="edgeLabel;html=1;align=center;verticalAlign=middle;resizable=0;points=[];fontSize=28;fontColor=#000099;labelBackgroundColor=none;fontStyle=1" vertex="1" connectable="0" parent="mcgONXmjv9BkWE1unD7E-25">
          <mxGeometry x="-0.0189" y="9" relative="1" as="geometry">
            <mxPoint as="offset" />
          </mxGeometry>
        </mxCell>
        <mxCell id="mcgONXmjv9BkWE1unD7E-30" value="&lt;div style=&quot;font-family: &amp;#34;consolas&amp;#34; , &amp;#34;courier new&amp;#34; , monospace ; line-height: 19px&quot;&gt;&lt;font style=&quot;font-size: 28px&quot;&gt;CHANNEL_HOLD&lt;/font&gt;&lt;/div&gt;" style="edgeLabel;html=1;align=center;verticalAlign=middle;resizable=0;points=[];fontSize=28;fontColor=#000099;labelBackgroundColor=none;fontStyle=1" vertex="1" connectable="0" parent="mcgONXmjv9BkWE1unD7E-25">
          <mxGeometry x="-0.0189" y="9" relative="1" as="geometry">
            <mxPoint x="-541" y="696" as="offset" />
          </mxGeometry>
        </mxCell>
        <mxCell id="mcgONXmjv9BkWE1unD7E-31" value="&lt;div style=&quot;font-family: &amp;#34;consolas&amp;#34; , &amp;#34;courier new&amp;#34; , monospace ; line-height: 19px&quot;&gt;&lt;font style=&quot;font-size: 28px&quot;&gt;CHANNEL_UNHOLD&lt;/font&gt;&lt;/div&gt;" style="edgeLabel;html=1;align=center;verticalAlign=middle;resizable=0;points=[];fontSize=28;fontColor=#000099;labelBackgroundColor=none;fontStyle=1" vertex="1" connectable="0" parent="mcgONXmjv9BkWE1unD7E-25">
          <mxGeometry x="-0.0189" y="9" relative="1" as="geometry">
            <mxPoint x="-721" y="576" as="offset" />
          </mxGeometry>
        </mxCell>
        <mxCell id="mcgONXmjv9BkWE1unD7E-34" value="&lt;div style=&quot;font-family: &amp;#34;consolas&amp;#34; , &amp;#34;courier new&amp;#34; , monospace ; line-height: 19px&quot;&gt;&lt;font style=&quot;font-size: 28px&quot;&gt;CHANNEL_HANGUP&lt;/font&gt;&lt;/div&gt;" style="edgeLabel;html=1;align=center;verticalAlign=middle;resizable=0;points=[];fontSize=28;fontColor=#000099;labelBackgroundColor=none;fontStyle=1" vertex="1" connectable="0" parent="mcgONXmjv9BkWE1unD7E-25">
          <mxGeometry x="-0.0189" y="9" relative="1" as="geometry">
            <mxPoint x="-111" y="636" as="offset" />
          </mxGeometry>
        </mxCell>
        <mxCell id="mcgONXmjv9BkWE1unD7E-35" value="&lt;div style=&quot;font-family: &amp;#34;consolas&amp;#34; , &amp;#34;courier new&amp;#34; , monospace ; line-height: 19px&quot;&gt;&lt;font style=&quot;font-size: 28px&quot;&gt;CHANNEL_HANGUP&lt;/font&gt;&lt;/div&gt;" style="edgeLabel;html=1;align=center;verticalAlign=middle;resizable=0;points=[];fontSize=28;fontColor=#000099;labelBackgroundColor=none;fontStyle=1" vertex="1" connectable="0" parent="mcgONXmjv9BkWE1unD7E-25">
          <mxGeometry x="-0.0189" y="9" relative="1" as="geometry">
            <mxPoint x="-111" y="346" as="offset" />
          </mxGeometry>
        </mxCell>
        <mxCell id="mcgONXmjv9BkWE1unD7E-14" value="HANGUP" style="ellipse;whiteSpace=wrap;html=1;fillColor=#dae8fc;strokeColor=#6c8ebf;" vertex="1" parent="1">
          <mxGeometry x="590" y="1085" width="120" height="80" as="geometry" />
        </mxCell>
        <mxCell id="mcgONXmjv9BkWE1unD7E-16" value="&lt;div style=&quot;font-family: &amp;#34;consolas&amp;#34; , &amp;#34;courier new&amp;#34; , monospace ; line-height: 19px ; font-size: 28px&quot;&gt;&lt;div style=&quot;font-family: &amp;#34;consolas&amp;#34; , &amp;#34;courier new&amp;#34; , monospace ; line-height: 19px&quot;&gt;&lt;h1 class=&quot;topictitle1&quot;&gt;&lt;font color=&quot;#ff00ff&quot; style=&quot;font-size: 28px&quot;&gt;HangUp&lt;/font&gt;&lt;/h1&gt;&lt;div&gt;&lt;font style=&quot;font-size: 28px&quot; color=&quot;#ff8000&quot;&gt;OnHangUpResult&lt;/font&gt;&lt;/div&gt;&lt;/div&gt;&lt;/div&gt;" style="edgeLabel;html=1;align=center;verticalAlign=middle;resizable=0;points=[];fontSize=15;fontColor=#CC00CC;labelBackgroundColor=none;fontStyle=1;" vertex="1" connectable="0" parent="1">
          <mxGeometry x="550" y="840" as="geometry" />
        </mxCell>
        <mxCell id="mcgONXmjv9BkWE1unD7E-22" style="edgeStyle=orthogonalEdgeStyle;rounded=0;orthogonalLoop=1;jettySize=auto;html=1;entryX=0.5;entryY=1;entryDx=0;entryDy=0;fontSize=28;fontColor=#FF00FF;curved=1;" edge="1" parent="1" source="mcgONXmjv9BkWE1unD7E-19" target="mcgONXmjv9BkWE1unD7E-14">
          <mxGeometry relative="1" as="geometry" />
        </mxCell>
        <mxCell id="mcgONXmjv9BkWE1unD7E-24" style="edgeStyle=orthogonalEdgeStyle;rounded=0;orthogonalLoop=1;jettySize=auto;html=1;fontSize=28;fontColor=#FF00FF;entryX=0;entryY=0.5;entryDx=0;entryDy=0;curved=1;exitX=0;exitY=0.5;exitDx=0;exitDy=0;" edge="1" parent="1" source="mcgONXmjv9BkWE1unD7E-19" target="mcgONXmjv9BkWE1unD7E-7">
          <mxGeometry relative="1" as="geometry">
            <mxPoint x="50" y="1125" as="targetPoint" />
            <Array as="points">
              <mxPoint x="40" y="1525" />
              <mxPoint x="40" y="1125" />
            </Array>
          </mxGeometry>
        </mxCell>
        <mxCell id="mcgONXmjv9BkWE1unD7E-19" value="HOLD" style="ellipse;whiteSpace=wrap;html=1;fillColor=#dae8fc;strokeColor=#6c8ebf;" vertex="1" parent="1">
          <mxGeometry x="130" y="1485" width="120" height="80" as="geometry" />
        </mxCell>
        <mxCell id="mcgONXmjv9BkWE1unD7E-21" value="&lt;div style=&quot;font-family: &amp;#34;consolas&amp;#34; , &amp;#34;courier new&amp;#34; , monospace ; font-size: 28px ; line-height: 19px&quot;&gt;&lt;div style=&quot;font-family: &amp;#34;consolas&amp;#34; , &amp;#34;courier new&amp;#34; , monospace ; line-height: 19px ; font-size: 28px&quot;&gt;&lt;h1 class=&quot;topictitle1&quot; style=&quot;font-size: 28px&quot;&gt;&lt;font color=&quot;#ff00ff&quot; style=&quot;font-size: 28px&quot;&gt;UnHold&lt;/font&gt;&lt;/h1&gt;&lt;div style=&quot;font-size: 28px&quot;&gt;&lt;font style=&quot;font-size: 28px&quot; color=&quot;#ff8000&quot;&gt;OnUnHoldResult&lt;/font&gt;&lt;/div&gt;&lt;/div&gt;&lt;/div&gt;" style="edgeLabel;html=1;align=center;verticalAlign=middle;resizable=0;points=[];fontSize=28;fontColor=#CC00CC;labelBackgroundColor=none;fontStyle=1;" vertex="1" connectable="0" parent="1">
          <mxGeometry x="50" y="1395" as="geometry">
            <mxPoint x="-12" y="2" as="offset" />
          </mxGeometry>
        </mxCell>
        <mxCell id="mcgONXmjv9BkWE1unD7E-29" value="&lt;div style=&quot;font-family: &amp;#34;consolas&amp;#34; , &amp;#34;courier new&amp;#34; , monospace ; line-height: 19px ; font-size: 28px&quot;&gt;&lt;div style=&quot;font-family: &amp;#34;consolas&amp;#34; , &amp;#34;courier new&amp;#34; , monospace ; line-height: 19px ; font-size: 28px&quot;&gt;&lt;h1 class=&quot;topictitle1&quot; style=&quot;font-size: 28px&quot;&gt;&lt;font color=&quot;#ff00ff&quot; style=&quot;font-size: 28px&quot;&gt;Hold&lt;/font&gt;&lt;/h1&gt;&lt;div style=&quot;font-size: 28px&quot;&gt;&lt;font style=&quot;font-size: 28px&quot; color=&quot;#ff8000&quot;&gt;OnHoldResult&lt;/font&gt;&lt;/div&gt;&lt;/div&gt;&lt;/div&gt;" style="edgeLabel;html=1;align=center;verticalAlign=middle;resizable=0;points=[];fontSize=28;fontColor=#CC00CC;labelBackgroundColor=none;fontStyle=1;" vertex="1" connectable="0" parent="1">
          <mxGeometry x="200" y="1230" as="geometry">
            <mxPoint x="-12" y="2" as="offset" />
          </mxGeometry>
        </mxCell>
        <mxCell id="mcgONXmjv9BkWE1unD7E-32" value="&lt;div style=&quot;font-family: &amp;#34;consolas&amp;#34; , &amp;#34;courier new&amp;#34; , monospace ; line-height: 19px ; font-size: 28px&quot;&gt;&lt;div style=&quot;font-family: &amp;#34;consolas&amp;#34; , &amp;#34;courier new&amp;#34; , monospace ; line-height: 19px&quot;&gt;&lt;h1 class=&quot;topictitle1&quot;&gt;&lt;font color=&quot;#ff00ff&quot; style=&quot;font-size: 28px&quot;&gt;HangUp&lt;/font&gt;&lt;/h1&gt;&lt;div&gt;&lt;font style=&quot;font-size: 28px&quot; color=&quot;#ff8000&quot;&gt;OnHangUpResult&lt;/font&gt;&lt;/div&gt;&lt;/div&gt;&lt;/div&gt;" style="edgeLabel;html=1;align=center;verticalAlign=middle;resizable=0;points=[];fontSize=15;fontColor=#CC00CC;labelBackgroundColor=none;fontStyle=1;" vertex="1" connectable="0" parent="1">
          <mxGeometry x="414" y="1095" as="geometry" />
        </mxCell>
        <mxCell id="mcgONXmjv9BkWE1unD7E-33" value="&lt;div style=&quot;font-family: &amp;#34;consolas&amp;#34; , &amp;#34;courier new&amp;#34; , monospace ; line-height: 19px ; font-size: 28px&quot;&gt;&lt;div style=&quot;font-family: &amp;#34;consolas&amp;#34; , &amp;#34;courier new&amp;#34; , monospace ; line-height: 19px&quot;&gt;&lt;h1 class=&quot;topictitle1&quot;&gt;&lt;font color=&quot;#ff00ff&quot; style=&quot;font-size: 28px&quot;&gt;HangUp&lt;/font&gt;&lt;/h1&gt;&lt;div&gt;&lt;font style=&quot;font-size: 28px&quot; color=&quot;#ff8000&quot;&gt;OnHangUpResult&lt;/font&gt;&lt;/div&gt;&lt;/div&gt;&lt;/div&gt;" style="edgeLabel;html=1;align=center;verticalAlign=middle;resizable=0;points=[];fontSize=15;fontColor=#CC00CC;labelBackgroundColor=none;fontStyle=1;" vertex="1" connectable="0" parent="1">
          <mxGeometry x="530" y="1410" as="geometry" />
        </mxCell>
      </root>
    </mxGraphModel>
  </diagram>
</mxfile>
